<?xml version="1.0" encoding="UTF-8" standalone="no"?>
<svg
   xmlns:dc="http://purl.org/dc/elements/1.1/"
   xmlns:cc="http://creativecommons.org/ns#"
   xmlns:rdf="http://www.w3.org/1999/02/22-rdf-syntax-ns#"
   xmlns:svg="http://www.w3.org/2000/svg"
   xmlns="http://www.w3.org/2000/svg"
   xmlns:sodipodi="http://sodipodi.sourceforge.net/DTD/sodipodi-0.dtd"
   xmlns:inkscape="http://www.inkscape.org/namespaces/inkscape"
   inkscape:version="1.0 (4035a4fb49, 2020-05-01)"
   sodipodi:docname="footerlogo.svg"
   id="svg687"
   version="1.1"
   viewBox="0 0 35 10"
   height="10mm"
   width="35mm">
  <defs
     id="defs681">
    <rect
       id="rect855"
       height="10.897699"
       width="25.567572"
       y="108.67999"
       x="30.513004" />
    <rect
       id="rect698"
       height="10.897699"
       width="25.567572"
       y="108.67999"
       x="30.513004" />
  </defs>
  <sodipodi:namedview
     inkscape:window-maximized="0"
     inkscape:window-y="0"
     inkscape:window-x="302"
     inkscape:window-height="1040"
     inkscape:window-width="1274"
     showgrid="false"
     inkscape:document-rotation="0"
     inkscape:current-layer="layer1"
     inkscape:document-units="mm"
     inkscape:cy="56.963611"
     inkscape:cx="240.84695"
     inkscape:zoom="1.4"
     inkscape:pageshadow="2"
     inkscape:pageopacity="0.0"
     borderopacity="1.0"
     bordercolor="#666666"
     pagecolor="#ffffff"
     id="base"
     inkscape:lockguides="true" />
  <metadata
     id="metadata684">
    <rdf:RDF>
      <cc:Work
         rdf:about="">
        <dc:format>image/svg+xml</dc:format>
        <dc:type
           rdf:resource="http://purl.org/dc/dcmitype/StillImage" />
        <dc:title />
      </cc:Work>
    </rdf:RDF>
  </metadata>
  <g
     id="layer1"
     inkscape:groupmode="layer"
     inkscape:label="Layer 1">
    <g
       style="opacity:1;fill:#ececec;fill-opacity:1"
       id="g12"
       transform="matrix(0.04305869,0,0,0.04305869,4.7021106,-7.9781522)">
      <path
         id="path14"
         style="fill:#ececec;fill-opacity:1;fill-rule:nonzero;stroke:none"
         d="m 51.062,242.449 c -20.488,16.867 -32.269,41.285 -32.316,66.977 0.027,25.679 11.781,50.097 32.242,66.98 H 68.414 C 47.953,359.523 36.199,335.105 36.176,309.426 36.219,283.734 48,259.316 68.488,242.449 Z m 26.141,0 c -20.488,16.867 -32.273,41.285 -32.316,66.977 0.027,25.679 11.781,50.097 32.242,66.98 H 94.555 C 74.094,359.523 62.34,335.105 62.312,309.426 c 0.047,-25.692 11.829,-50.11 32.317,-66.977 z m 26.137,0 c -20.488,16.867 -32.27,41.285 -32.313,66.977 0.028,25.679 11.782,50.097 32.243,66.98 h 17.425 C 104.922,363.344 94.215,345.668 90.27,326.191 h 30.949 c -4.336,-3.753 -6.934,-10.039 -6.938,-16.765 0.008,-6.727 2.61,-13.016 6.949,-16.766 H 90.215 c 3.976,-19.492 14.734,-37.168 30.555,-50.211 z" />
      <path
         id="path16"
         style="fill:#ececec;fill-opacity:1;fill-rule:nonzero;stroke:none"
         d="m 173.398,322.418 h 10.329 v 10.125 c 0,12 -5.25,18 -15.75,18 -10.875,0 -16.313,-6 -16.313,-18 v -45.828 c 0,-12 5.438,-18 16.313,-18 10.5,0 15.75,6 15.75,18 v 7.469 h -10.329 v -12.579 c 0,-3.132 -1.808,-4.703 -5.421,-4.703 -3.625,0 -5.438,1.571 -5.438,4.703 v 56.047 c 0,3.137 1.813,4.703 5.438,4.703 3.613,0 5.421,-1.566 5.421,-4.703 z" />
      <path
         id="path18"
         style="fill:#ececec;fill-opacity:1;fill-rule:nonzero;stroke:none"
         d="m 225.43,268.715 h 10.875 v 81.828 H 225.43 Z" />
      <path
         id="path20"
         style="fill:#ececec;fill-opacity:1;fill-rule:nonzero;stroke:none"
         d="m 241.125,268.715 h 32.609 v 8.187 h -10.875 v 73.641 H 252 v -73.641 h -10.875 z" />
      <path
         id="path22"
         style="fill:#ececec;fill-opacity:1;fill-rule:nonzero;stroke:none"
         d="m 315.324,281.605 c 0,-3.132 -1.543,-4.703 -4.625,-4.703 -3.074,0 -4.609,1.571 -4.609,4.703 v 11.157 c 0,3.543 3.348,8.656 10.047,15.343 6.707,6.68 10.062,12.438 10.062,17.282 v 7.156 c 0,12 -5.168,18 -15.5,18 -10.324,0 -15.484,-6 -15.484,-18 v -10.125 h 10.875 v 15.234 c 0,3.137 1.535,4.703 4.609,4.703 3.082,0 4.625,-1.566 4.625,-4.703 v -9.406 c 0,-5.039 -3.355,-10.801 -10.062,-17.281 -6.7,-6.477 -10.047,-12.82 -10.047,-19.031 v -5.219 c 0,-12 5.16,-18 15.484,-18 10.332,0 15.5,6 15.5,18 v 7.469 h -10.875 z" />
      <path
         id="path24"
         style="fill:#ececec;fill-opacity:1;fill-rule:nonzero;stroke:none"
         d="m 344.938,350.543 v -34.984 l -14.266,-46.844 h 11.14 l 6.516,25.265 2.047,11.047 2.031,-11.047 6.391,-25.265 h 11.281 l -14.266,46.844 v 34.984 z" />
      <path
         id="path26"
         style="fill:#ececec;fill-opacity:1;fill-rule:nonzero;stroke:none"
         d="m 394.395,281.605 c 0,-3.132 -1.543,-4.703 -4.625,-4.703 -3.075,0 -4.61,1.571 -4.61,4.703 v 11.157 c 0,3.543 3.348,8.656 10.047,15.343 6.707,6.68 10.063,12.438 10.063,17.282 v 7.156 c 0,12 -5.168,18 -15.5,18 -10.325,0 -15.485,-6 -15.485,-18 v -10.125 h 10.875 v 15.234 c 0,3.137 1.535,4.703 4.61,4.703 3.082,0 4.625,-1.566 4.625,-4.703 v -9.406 c 0,-5.039 -3.356,-10.801 -10.063,-17.281 -6.699,-6.477 -10.047,-12.82 -10.047,-19.031 v -5.219 c 0,-12 5.16,-18 15.485,-18 10.332,0 15.5,6 15.5,18 v 7.469 h -10.875 z" />
      <path
         id="path28"
         style="fill:#ececec;fill-opacity:1;fill-rule:nonzero;stroke:none"
         d="m 410.148,268.715 h 32.61 v 8.187 h -10.875 v 73.641 h -10.86 v -73.641 h -10.875 z" />
      <path
         id="path30"
         style="fill:#ececec;fill-opacity:1;fill-rule:nonzero;stroke:none"
         d="m 458.395,342.355 h 16.703 v 8.188 H 447.52 v -81.828 h 27.578 v 8.187 h -16.703 v 27.813 h 9.5 v 8.187 h -9.5 z" />
      <path
         id="path32"
         style="fill:#ececec;fill-opacity:1;fill-rule:nonzero;stroke:none"
         d="m 482.277,350.543 v -81.828 h 15.907 l 7.187,44.094 1.766,14.515 1.64,-14.422 7.203,-44.187 h 16.297 v 81.828 h -9.781 v -64.031 l -1.359,9.828 -9.516,54.203 h -8.969 l -9.5,-54.922 -1.093,-9 v 63.922 z" />
      <path
         id="path34"
         style="fill:#ececec;fill-opacity:1;fill-rule:nonzero;stroke:none"
         d="m 561.027,281.605 c 0,-3.132 -1.543,-4.703 -4.625,-4.703 -3.074,0 -4.609,1.571 -4.609,4.703 v 11.157 c 0,3.543 3.348,8.656 10.047,15.343 6.707,6.68 10.062,12.438 10.062,17.282 v 7.156 c 0,12 -5.168,18 -15.5,18 -10.324,0 -15.484,-6 -15.484,-18 v -10.125 h 10.875 v 15.234 c 0,3.137 1.535,4.703 4.609,4.703 3.082,0 4.625,-1.566 4.625,-4.703 v -9.406 c 0,-5.039 -3.355,-10.801 -10.062,-17.281 -6.699,-6.477 -10.047,-12.82 -10.047,-19.031 v -5.219 c 0,-12 5.16,-18 15.484,-18 10.332,0 15.5,6 15.5,18 v 7.469 h -10.875 z" />
      <path
         id="path36"
         style="fill:#ececec;fill-opacity:1;fill-rule:nonzero;stroke:none"
         d="m 197.473,288.918 c -5.192,5.98 -7.985,13.059 -8.02,20.309 0.008,7.257 2.781,14.343 7.957,20.335 h 10.047 c 5.176,-5.992 7.949,-13.078 7.957,-20.335 0,-0.165 -0.012,-0.332 -0.016,-0.5 h -6.933 c 0.004,0.168 0.015,0.332 0.019,0.5 -0.027,4.886 -2.832,9.718 -5.289,14.203 -2.453,-4.485 -3.73,-9.317 -3.757,-14.203 0.011,-3.934 0.851,-7.832 2.449,-11.547 l -0.106,-0.559 0.348,0.004 c 0.332,-0.727 0.68,-1.453 1.066,-2.164 0.395,0.715 0.746,1.441 1.075,2.176 l 8.46,0.035 c -1.316,-2.906 -3.101,-5.68 -5.335,-8.254 z" />
      <path
         id="path38"
         style="fill:#ececec;fill-opacity:1;fill-rule:nonzero;stroke:none"
         d="m 193.719,299.414 h 7.07 l 18.32,30.148 h -7.07 z" />
    </g>
  </g>
</svg>
